HIERARCHY
ROOT Hips
{
  OFFSET -30.9074 93.2485 5.86677
  CHANNELS 6 Xposition Yposition Zposition Zrotation Xrotation Yrotation
  JOINT LeftUpLeg
  {
    OFFSET 9.63379 -0.250344 0
    CHANNELS 6 Xposition Yposition Zposition Zrotation Xrotation Yrotation
    JOINT LeftLeg
    {
      OFFSET 0 -40.4779 -1.71313
      CHANNELS 6 Xposition Yposition Zposition Zrotation Xrotation Yrotation
      JOINT LeftFoot
      {
        OFFSET 0.0126047 -40.4416 -0.864524
        CHANNELS 6 Xposition Yposition Zposition Zrotation Xrotation Yrotation
        JOINT LeftToeBase
        {
          OFFSET -0.183287 -12.1867 8.28226
          CHANNELS 6 Xposition Yposition Zposition Zrotation Xrotation Yrotation
          End Site
          {
            OFFSET 0 0 9.15615
          }
        }
      }
    }
  }
}
MOTION
Frames:	25
Frame Time:	0.00833333
-26.943 83.1534 -62.8349 4.31809 19.9775 1.97505 9.63379 -0.250344 -7.15256e-007 -6.0699 -48.0198 -2.01603 0 -40.4779 -1.71313 2.26235 51.627 -1.31786 0.0126047 -40.4416 -0.864524 0.275764 0.00234365 -0.00516614 -0.183287 -12.1867 8.28226 2.77363e-011 3.82565e-011 9.42414e-011 
-26.9478 82.7903 -62.7356 4.38384 20.1681 1.94426 9.63379 -0.250344 -7.15256e-007 -6.23167 -48.7045 -2.19292 0 -40.4779 -1.71313 2.2178 52.6832 -1.3349 0.0126047 -40.4416 -0.864524 0.278197 0.131409 -0.00516616 -0.183287 -12.1867 8.28226 2.77363e-011 3.82565e-011 9.42414e-011 
-26.9532 82.4401 -62.6186 4.43056 20.3566 1.92932 9.63379 -0.250344 -7.15256e-007 -6.37836 -49.3462 -2.36371 0 -40.4779 -1.71313 2.1756 53.6868 -1.35007 0.0126047 -40.4416 -0.864524 0.279873 0.264762 -0.0051662 -0.183287 -12.1867 8.28226 2.77363e-011 3.82565e-011 9.42414e-011 
-26.9626 82.1055 -62.4804 4.44626 20.5007 1.95228 9.63379 -0.250344 -7.15256e-007 -6.50594 -49.9012 -2.53555 0 -40.4779 -1.71313 2.14783 54.6386 -1.36805 0.0126047 -40.4416 -0.864524 0.281353 0.405435 -0.00516627 -0.183287 -12.1867 8.28226 2.77363e-011 3.82565e-011 9.42414e-011 
-26.9785 81.7762 -62.3253 4.41274 20.5878 2.0353 9.63379 -0.250344 -7.15256e-007 -6.60474 -50.3765 -2.71483 0 -40.4779 -1.71313 2.13779 55.5674 -1.38964 0.0126047 -40.4416 -0.864524 0.283126 0.565784 -0.0051664 -0.183287 -12.1867 8.28226 2.77363e-011 3.82565e-011 9.42414e-011 
-26.9985 81.4547 -62.1535 4.34113 20.6407 2.16129 9.63379 -0.250344 -7.15256e-007 -6.67816 -50.7891 -2.89496 0 -40.4779 -1.71313 2.13907 56.4632 -1.41249 0.0126047 -40.4416 -0.864524 0.28478 0.740343 -0.00516658 -0.183287 -12.1867 8.28226 2.77363e-011 3.82565e-011 9.42414e-011 
-27.0188 81.1617 -61.9552 4.26353 20.6708 2.29331 9.63379 -0.250344 -7.15256e-007 -6.74066 -51.1107 -3.06265 0 -40.4779 -1.71313 2.14945 57.2688 -1.43669 0.0126047 -40.4416 -0.864524 0.285522 0.905408 -0.00516679 -0.183287 -12.1867 8.28226 2.77363e-011 3.82565e-011 9.42414e-011 
-27.0355 80.9181 -61.7208 4.21203 20.6891 2.39439 9.63379 -0.250344 -7.15256e-007 -6.80582 -51.3126 -3.20391 0 -40.4779 -1.71313 2.16653 57.9268 -1.46209 0.0126047 -40.4416 -0.864524 0.284556 1.03728 -0.00516699 -0.183287 -12.1867 8.28226 2.77363e-011 3.82565e-011 9.42414e-011 
-27.047 80.7244 -61.4515 4.20262 20.6915 2.449 9.63379 -0.250344 -7.15256e-007 -6.877 -51.382 -3.30857 0 -40.4779 -1.71313 2.18435 58.4228 -1.48587 0.0126047 -40.4416 -0.864524 0.281482 1.13042 -0.00516715 -0.183287 -12.1867 8.28226 2.77363e-011 3.82565e-011 9.42414e-011 
-27.0556 80.5712 -61.1511 4.21586 20.6743 2.47869 9.63379 -0.250344 -7.15256e-007 -6.94441 -51.336 -3.38411 0 -40.4779 -1.71313 2.20541 58.7872 -1.50838 0.0126047 -40.4416 -0.864524 0.276785 1.1972 -0.00516727 -0.183287 -12.1867 8.28226 2.77363e-011 3.82565e-011 9.42414e-011 
-27.0631 80.4643 -60.8141 4.23068 20.6503 2.50217 9.63379 -0.250344 -7.15256e-007 -7.00195 -51.1911 -3.4431 0 -40.4779 -1.71313 2.23994 59.0296 -1.53424 0.0126047 -40.4416 -0.864524 0.271007 1.2408 -0.00516736 -0.183287 -12.1867 8.28226 2.77363e-011 3.82565e-011 9.42414e-011 
-27.0713 80.4095 -60.435 4.22602 20.6319 2.53818 9.63379 -0.250344 -7.15256e-007 -7.04383 -50.9637 -3.49835 0 -40.4779 -1.71313 2.29835 59.1601 -1.56824 0.0126047 -40.4416 -0.864524 0.264687 1.26438 -0.0051674 -0.183287 -12.1867 8.28226 2.77363e-011 3.82565e-011 9.42414e-011 
-27.0816 80.4046 -60.0177 4.20233 20.6248 2.58549 9.63379 -0.250344 -7.15256e-007 -7.08321 -50.6642 -3.56825 0 -40.4779 -1.71313 2.38516 59.1877 -1.61333 0.0126047 -40.4416 -0.864524 0.257486 1.26925 -0.00516741 -0.183287 -12.1867 8.28226 2.77363e-011 3.82565e-011 9.42414e-011 
-27.0928 80.4478 -59.5632 4.16883 20.6215 2.63619 9.63379 -0.250344 -7.15256e-007 -7.11742 -50.2819 -3.64042 0 -40.4779 -1.71313 2.49358 59.1051 -1.66581 0.0126047 -40.4416 -0.864524 0.249277 1.25358 -0.00516738 -0.183287 -12.1867 8.28226 2.77363e-011 3.82565e-011 9.42414e-011 
-27.1025 80.5452 -59.062 4.11753 20.6152 2.69899 9.63379 -0.250344 -7.15256e-007 -7.11776 -49.8013 -3.68229 0 -40.4779 -1.71313 2.6169 58.897 -1.72038 0.0126047 -40.4416 -0.864524 0.240919 1.21577 -0.00516731 -0.183287 -12.1867 8.28226 2.77363e-011 3.82565e-011 9.42414e-011 
-27.1084 80.7032 -58.5043 4.0405 20.5988 2.78259 9.63379 -0.250344 -7.15256e-007 -7.05749 -49.207 -3.6628 0 -40.4779 -1.71313 2.74833 58.5484 -1.7717 0.0126047 -40.4416 -0.864524 0.233272 1.15424 -0.00516719 -0.183287 -12.1867 8.28226 2.77363e-011 3.82565e-011 9.42414e-011 
-27.1095 80.9246 -57.8898 3.94018 20.58 2.89285 9.63379 -0.250344 -7.15256e-007 -6.94218 -48.5102 -3.58144 0 -40.4779 -1.71313 2.88359 58.0678 -1.8194 0.0126047 -40.4416 -0.864524 0.22711 1.06294 -0.00516703 -0.183287 -12.1867 8.28226 2.77363e-011 3.82565e-011 9.42414e-011 
-27.1073 81.2057 -57.223 3.81935 20.5593 3.02393 9.63379 -0.250344 -7.15256e-007 -6.78667 -47.7138 -3.45613 0 -40.4779 -1.71313 3.0261 57.4591 -1.86524 0.0126047 -40.4416 -0.864524 0.221794 0.94458 -0.00516685 -0.183287 -12.1867 8.28226 2.77363e-011 3.82565e-011 9.42414e-011 
-27.1025 81.5426 -56.501 3.6707 20.5192 3.16692 9.63379 -0.250344 -7.15256e-007 -6.58094 -46.7899 -3.28581 0 -40.4779 -1.71313 3.18076 56.7002 -1.90737 0.0126047 -40.4416 -0.864524 0.21606 0.810769 -0.00516666 -0.183287 -12.1867 8.28226 2.77363e-011 3.82565e-011 9.42414e-011 
-27.096 81.9314 -55.7209 3.48708 20.4423 3.31286 9.63379 -0.250344 -7.15256e-007 -6.31634 -45.7104 -3.07045 0 -40.4779 -1.71313 3.35267 55.769 -1.94417 0.0126047 -40.4416 -0.864524 0.208645 0.673104 -0.0051665 -0.183287 -12.1867 8.28226 2.77363e-011 3.82565e-011 9.42414e-011 
-27.0873 82.3714 -54.8845 3.26136 20.342 3.4671 9.63379 -0.250344 -7.15256e-007 -6.01186 -44.4849 -2.83187 0 -40.4779 -1.71313 3.55486 54.6679 -1.98347 0.0126047 -40.4416 -0.864524 0.199808 0.527711 -0.00516636 -0.183287 -12.1867 8.28226 2.77363e-011 3.82565e-011 9.42414e-011 
-27.0762 82.8645 -53.9924 2.99949 20.2216 3.63172 9.63379 -0.250344 -7.15256e-007 -5.67367 -43.122 -2.56934 0 -40.4779 -1.71313 3.77981 53.4059 -2.02316 0.0126047 -40.4416 -0.864524 0.190025 0.370725 -0.00516625 -0.183287 -12.1867 8.28226 2.77363e-011 3.82565e-011 9.42414e-011 
-27.064 83.411 -53.0403 2.71435 20.0486 3.79269 9.63379 -0.250344 -7.15256e-007 -5.27915 -41.5926 -2.25258 0 -40.4779 -1.71313 4.00354 51.971 -2.04843 0.0126047 -40.4416 -0.864524 0.178354 0.213764 -0.00516618 -0.183287 -12.1867 8.28226 2.77363e-011 3.82565e-011 9.42414e-011 
-27.0522 84.0114 -52.0238 2.41902 19.7906 3.93597 9.63379 -0.250344 -7.15256e-007 -4.81173 -39.8666 -1.85514 0 -40.4779 -1.71313 4.20469 50.351 -2.0466 0.0126047 -40.4416 -0.864524 0.163855 0.0684467 -0.00516615 -0.183287 -12.1867 8.28226 2.77363e-011 3.82565e-011 9.42414e-011 
-27.0396 84.6625 -50.93 2.10434 19.4538 4.0622 9.63379 -0.250344 -7.15256e-007 -4.28996 -37.9189 -1.38449 0 -40.4779 -1.71313 4.40808 48.5224 -2.02705 0.0126047 -40.4416 -0.864524 0.144535 -0.0707515 -0.00516615 -0.183287 -12.1867 8.28226 2.77363e-011 3.82565e-011 9.42414e-011 
